<svg xmlns="http://www.w3.org/2000/svg" enable-background="new 0 0 100 100" viewBox="0 0 100 100" id="circus"><polygon fill="#ff8858" points="89.32 53 10.68 53 10.98 51 11 50.83 11 49 89 49 89 50.83 89.02 51"></polygon><path fill="#c8d2dc" d="M52,19v6c0,0.1-0.01,0.21-0.03,0.31c0,0.05-0.01,0.1-0.03,0.15c-0.01,0.05-0.02,0.1-0.04,0.15c-0.01,0.06-0.03,0.11-0.06,0.17c-0.02,0.06-0.05,0.11-0.08,0.17c-0.01,0.02-0.02,0.03-0.03,0.05c-0.06,0.1-0.12,0.19-0.19,0.27c-0.07,0.08-0.14,0.16-0.22,0.22C50.97,26.81,50.51,27,50,27s-0.97-0.19-1.32-0.51c-0.08-0.06-0.15-0.14-0.22-0.22c-0.07-0.08-0.13-0.17-0.19-0.27c-0.01-0.02-0.02-0.03-0.03-0.05c-0.03-0.06-0.06-0.11-0.08-0.17c-0.03-0.06-0.05-0.11-0.06-0.17c-0.03-0.09-0.06-0.19-0.07-0.3C48.01,25.21,48,25.1,48,25v-6c0-1.1,0.9-2,2-2S52,17.9,52,19z"></path><path fill="#96293b" d="M27 51l-.3 1.97V53l-5.4 36L21 91v2h-9.36c-1.74 0-3.4-.76-4.54-2.08-1.14-1.33-1.65-3.08-1.39-4.81L10.68 53l.3-2H27zM79 91v2H62c.8 0 1.52-.48 1.84-1.21L64.18 91l.86-2 4.8-11.21c.31-.74.16-1.59-.39-2.17L52 57.2l-.54-.56c-.01-.01-.02-.02-.02-.02-.09-.1-.18-.18-.28-.25-.04-.02-.07-.05-.11-.07-.18-.11-.36-.19-.55-.23-.06-.02-.11-.03-.17-.04C50.22 56.01 50.11 56 50 56v-5h23l.3 1.97V53l5.4 36L79 91z"></path><path fill="#96293b" d="M27 53h-.3v-.03C26.8 52.99 26.9 53 27 53zM69.84 77.79L65.04 89l-.86 2H35.82l-.86-2-4.8-11.21c-.31-.74-.16-1.59.39-2.17L48 57.2l.54-.56.01-.02h.01c.09-.1.18-.18.28-.25.2-.15.43-.25.67-.3.06-.02.11-.03.16-.04C49.78 56.01 49.89 56 50 56s.22.01.33.03c.06.01.11.02.17.04.19.04.37.12.55.23.04.02.07.05.11.07.1.07.19.15.28.25 0 0 .01.01.02.02L52 57.2l17.45 18.42C70 76.2 70.15 77.05 69.84 77.79z"></path><polygon fill="#231f20" points="89.02 51 89 51 89 50.83"></polygon><polygon fill="#231f20" points="11 50.83 11 51 10.98 51"></polygon><path fill="#231f20" d="M65.04 89l-.86 2-.34.79C63.52 92.52 62.8 93 62 93H38c-.8 0-1.52-.48-1.84-1.21L35.82 91l-.86-2H65.04zM27 53h-.3v-.03C26.8 52.99 26.9 53 27 53z"></path><line x1="50" x2="50" y1="57.77" y2="56" fill="none"></line><line x1="50" x2="50" y1="23" y2="21" fill="none"></line><path fill="#231f20" d="M50.42 23.05c-.02-.01-.05-.02-.07-.02.02 0 .04.01.06.01L50.42 23.05zM52 57.2v.57c0 .04 0 .08-.01.12 0 .22-.04.43-.11.64l-.04.11c-.11.28-.27.54-.47.75-.01.01-.02.02-.03.03-.19.2-.41.35-.66.45C50.47 59.96 50.24 60 50 60s-.47-.04-.68-.13c-.25-.1-.47-.25-.66-.45-.01-.01-.02-.02-.03-.03-.2-.21-.36-.47-.47-.75l-.04-.11c-.07-.21-.11-.42-.11-.64C48 57.85 48 57.81 48 57.77V57.2l.54-.56.01-.02h.01c.09-.1.18-.18.28-.25.2-.15.43-.25.67-.3.06-.02.11-.03.16-.04C49.78 56.01 49.89 56 50 56s.22.01.33.03c.06.01.11.02.17.04.19.04.37.12.55.23.04.02.07.05.11.07.1.07.19.15.28.25 0 0 .01.01.02.02L52 57.2z"></path><polygon fill="#231f20" points="11 50.83 11 51 10.98 51"></polygon><path fill="#231f20" d="M27,53h-0.3v-0.03C26.8,52.99,26.9,53,27,53z"></path><polygon fill="#231f20" points="89.02 51 89 51 89 50.83"></polygon><path fill="#ff8858" d="M50.42 23.05c-.02-.01-.05-.02-.07-.02.02 0 .04.01.06.01L50.42 23.05zM50 51v5c-.11 0-.22.01-.33.03-.05.01-.1.02-.16.04-.24.05-.47.15-.67.3-.1.07-.19.15-.28.25h-.01l-.01.02L48 57.2 41.56 64 38 67.76l-7.45 7.86c-.55.58-.7 1.43-.39 2.17L34.96 89l.86 2 .34.79C36.48 92.52 37.2 93 38 93H21v-2l.3-2 5.4-36v-.03L27 51H50z"></path><path fill="#231f20" d="M50.42,23.05c-0.02-0.01-0.05-0.02-0.07-0.02c0.02,0,0.04,0.01,0.06,0.01L50.42,23.05z"></path><path fill="#ffb655" d="M89,47.38V51H73l-1.32-1.5L71.23,49L53.85,29.35L52,27.26l-0.66-0.75l-0.02-0.02L50,25v-2c0.04,0,0.08,0,0.12,0.01c0.04-0.01,0.08,0,0.13,0.01c0.02,0,0.05,0,0.08,0.01c0.01,0,0.01,0,0.02,0c0.02,0,0.05,0.01,0.07,0.02c0.01,0,0.03,0,0.04,0.01h0.03c0.04,0.01,0.07,0.02,0.1,0.03c0.01,0,0.01,0.01,0.02,0.01c0.04,0.01,0.08,0.02,0.12,0.04c0,0,0.01,0,0.02,0.01c0.02,0,0.04,0.01,0.06,0.02c0.05,0.02,0.09,0.04,0.14,0.07l0.11,0.06L52,23.81l33.85,18.3C87.79,43.16,89,45.18,89,47.38z"></path><polygon fill="#c83c51" points="73 51 50 51 50 25 51.32 26.49 51.34 26.51 52 27.26 53.85 29.35 71.23 49 71.68 49.5"></polygon><polygon fill="#ffb655" points="50 25 50 51 27 51 28.32 49.5 28.77 49 46.15 29.35 48 27.26 48.66 26.51"></polygon><path fill="#c83c51" d="M50,23v2l-1.32,1.49l-0.02,0.02L48,27.26l-1.85,2.09L28.77,49l-0.45,0.5L27,51H11v-3.62c0-2.2,1.21-4.22,3.15-5.27L48,23.81l0.94-0.51l0.11-0.06c0.05-0.03,0.09-0.05,0.14-0.07c0.02-0.01,0.04-0.02,0.06-0.02c0.01-0.01,0.02-0.01,0.02-0.01c0.04-0.02,0.08-0.03,0.12-0.04c0.01,0,0.01-0.01,0.02-0.01c0.03-0.01,0.06-0.02,0.1-0.03h0.03c0.01-0.01,0.03-0.01,0.04-0.01c0,0,0.01,0,0.01-0.01c0.01,0,0.02-0.01,0.04-0.01h0.02c0.01,0,0.01,0,0.02,0c0.03-0.01,0.06-0.01,0.08-0.01c0.04-0.01,0.07-0.01,0.09-0.01h0.04C49.92,23,49.96,23,50,23z"></path><path fill="#ff8858" d="M92.9,90.92C91.76,92.24,90.1,93,88.36,93H79v-2l-0.3-2l-5.4-36v-0.03L73,51h16.02l0.3,2l4.97,33.11C94.55,87.84,94.04,89.59,92.9,90.92z"></path><path fill="#ffb655" d="M65.56,17.75c0.48,0.6,0.58,1.42,0.24,2.12C65.47,20.56,64.77,21,64,21H50c-1.1,0-2-0.9-2-2V9c0-1.1,0.9-2,2-2h14c0.77,0,1.47,0.44,1.8,1.13c0.34,0.7,0.24,1.52-0.24,2.12l-3,3.75L65.56,17.75z"></path><polygon fill="#1765a1" points="62 67.76 62 93 38 93 38 67.76 41.56 64 58.44 64"></polygon><path fill="#0e4066" d="M69.84,77.79L65.04,89l-0.86,2l-0.34,0.79C63.52,92.52,62.8,93,62,93h-0.06c-0.82-0.02-1.54-0.55-1.82-1.32L59.87,91l-0.72-2l-9.1-25L50,63.85L49.95,64l-9.1,25l-0.72,2l-0.25,0.68c-0.28,0.77-1,1.3-1.82,1.32H38c-0.8,0-1.52-0.48-1.84-1.21L35.82,91l-0.86-2l-4.8-11.21c-0.31-0.74-0.16-1.59,0.39-2.17L38,67.76L41.56,64L48,57.2l0.54-0.56l0.01-0.02h0.01c0.09-0.1,0.18-0.18,0.28-0.25c0.2-0.15,0.43-0.25,0.67-0.3c0.06-0.02,0.11-0.03,0.16-0.04C49.78,56.01,49.89,56,50,56s0.22,0.01,0.33,0.03c0.06,0.01,0.11,0.02,0.17,0.04c0.19,0.04,0.37,0.12,0.55,0.23c0.04,0.02,0.07,0.05,0.11,0.07c0.1,0.07,0.19,0.15,0.28,0.25c0,0,0.01,0.01,0.02,0.02L52,57.2l6.44,6.8L62,67.76l7.45,7.86C70,76.2,70.15,77.05,69.84,77.79z"></path><path fill="#fff" d="M50,7v86H11.64c-1.74,0-3.4-0.76-4.54-2.08c-1.14-1.33-1.65-3.08-1.39-4.81L10.68,53l0.3-2L11,50.83v-3.45c0-2.2,1.21-4.22,3.15-5.27L48,23.81V9C48,7.9,48.9,7,50,7z" opacity=".16"></path></svg>